<mxfile host="Electron" modified="2022-01-24T10:43:39.801Z" agent="5.0 (Windows NT 10.0; Win64; x64) AppleWebKit/537.36 (KHTML, like Gecko) draw.io/15.7.3 Chrome/91.0.4472.164 Electron/13.6.1 Safari/537.36" etag="99c8eNWi7xeKNAUlNI6q" compressed="false" version="15.7.3" type="device">
  <diagram id="bJp0U2BYxJu8FbHyDJQ4" name="Seite-1">
    <mxGraphModel dx="747" dy="1250" grid="1" gridSize="10" guides="1" tooltips="1" connect="1" arrows="1" fold="1" page="1" pageScale="1" pageWidth="827" pageHeight="1169" math="0" shadow="0">
      <root>
        <mxCell id="0" />
        <mxCell id="1" parent="0" />
        <mxCell id="HO09paWQtQ8aA_VJCihO-2" style="rounded=0;orthogonalLoop=1;jettySize=auto;" parent="1" source="fspGmHOXtjN8gbxVSLJ7-2" target="HO09paWQtQ8aA_VJCihO-1" edge="1">
          <mxGeometry relative="1" as="geometry" />
        </mxCell>
        <mxCell id="eo-EwUSCdZ1exYj2hIaM-5" style="rounded=0;orthogonalLoop=1;jettySize=auto;" parent="1" source="fspGmHOXtjN8gbxVSLJ7-2" target="HO09paWQtQ8aA_VJCihO-5" edge="1">
          <mxGeometry relative="1" as="geometry" />
        </mxCell>
        <mxCell id="eo-EwUSCdZ1exYj2hIaM-6" style="rounded=0;orthogonalLoop=1;jettySize=auto;entryX=0.5;entryY=0;entryDx=0;entryDy=0;" parent="1" source="fspGmHOXtjN8gbxVSLJ7-2" target="wuFwHVqsx3Kr4lyMLA3o-2" edge="1">
          <mxGeometry relative="1" as="geometry">
            <mxPoint x="1810" y="320" as="targetPoint" />
          </mxGeometry>
        </mxCell>
        <mxCell id="eo-EwUSCdZ1exYj2hIaM-7" style="rounded=0;orthogonalLoop=1;jettySize=auto;" parent="1" source="fspGmHOXtjN8gbxVSLJ7-2" target="HO09paWQtQ8aA_VJCihO-3" edge="1">
          <mxGeometry relative="1" as="geometry" />
        </mxCell>
        <mxCell id="eo-EwUSCdZ1exYj2hIaM-16" style="edgeStyle=none;rounded=0;orthogonalLoop=1;jettySize=auto;" parent="1" source="fspGmHOXtjN8gbxVSLJ7-2" target="eo-EwUSCdZ1exYj2hIaM-15" edge="1">
          <mxGeometry relative="1" as="geometry" />
        </mxCell>
        <mxCell id="eo-EwUSCdZ1exYj2hIaM-18" style="edgeStyle=none;rounded=0;orthogonalLoop=1;jettySize=auto;" parent="1" source="fspGmHOXtjN8gbxVSLJ7-2" target="eo-EwUSCdZ1exYj2hIaM-17" edge="1">
          <mxGeometry relative="1" as="geometry" />
        </mxCell>
        <object label="Verletzung der körperlichen Unversehrtheit" id="fspGmHOXtjN8gbxVSLJ7-2">
          <ag_attributes />
          <ag_computed_attributes />
          <mxCell style="rounded=1;whiteSpace=wrap;" parent="1" vertex="1">
            <mxGeometry x="1947" y="140" width="242" height="60" as="geometry" />
          </mxCell>
        </object>
        <mxCell id="eo-EwUSCdZ1exYj2hIaM-4" style="rounded=0;orthogonalLoop=1;jettySize=auto;" parent="1" source="fspGmHOXtjN8gbxVSLJ7-3" target="HO09paWQtQ8aA_VJCihO-6" edge="1">
          <mxGeometry relative="1" as="geometry" />
        </mxCell>
        <mxCell id="eo-EwUSCdZ1exYj2hIaM-19" style="edgeStyle=none;rounded=0;orthogonalLoop=1;jettySize=auto;" parent="1" source="fspGmHOXtjN8gbxVSLJ7-3" target="HO09paWQtQ8aA_VJCihO-5" edge="1">
          <mxGeometry relative="1" as="geometry" />
        </mxCell>
        <mxCell id="eo-EwUSCdZ1exYj2hIaM-21" style="edgeStyle=none;rounded=0;orthogonalLoop=1;jettySize=auto;" parent="1" source="fspGmHOXtjN8gbxVSLJ7-3" target="eo-EwUSCdZ1exYj2hIaM-17" edge="1">
          <mxGeometry relative="1" as="geometry" />
        </mxCell>
        <mxCell id="eo-EwUSCdZ1exYj2hIaM-23" style="edgeStyle=none;rounded=0;orthogonalLoop=1;jettySize=auto;" parent="1" source="fspGmHOXtjN8gbxVSLJ7-3" target="eo-EwUSCdZ1exYj2hIaM-15" edge="1">
          <mxGeometry relative="1" as="geometry" />
        </mxCell>
        <mxCell id="plyIKMAmDw_uasNs-4-3-30" style="edgeStyle=none;rounded=0;orthogonalLoop=1;jettySize=auto;" parent="1" source="fspGmHOXtjN8gbxVSLJ7-3" target="HO09paWQtQ8aA_VJCihO-1" edge="1">
          <mxGeometry relative="1" as="geometry" />
        </mxCell>
        <mxCell id="plyIKMAmDw_uasNs-4-3-31" style="edgeStyle=none;rounded=0;orthogonalLoop=1;jettySize=auto;" parent="1" source="fspGmHOXtjN8gbxVSLJ7-3" target="HO09paWQtQ8aA_VJCihO-3" edge="1">
          <mxGeometry relative="1" as="geometry" />
        </mxCell>
        <object label="Reputationsschaden Betreiber" id="fspGmHOXtjN8gbxVSLJ7-3">
          <ag_attributes />
          <ag_computed_attributes />
          <mxCell style="rounded=1;whiteSpace=wrap;" parent="1" vertex="1">
            <mxGeometry x="2810" y="140" width="242" height="60" as="geometry" />
          </mxCell>
        </object>
        <mxCell id="eo-EwUSCdZ1exYj2hIaM-3" style="rounded=0;orthogonalLoop=1;jettySize=auto;" parent="1" source="fspGmHOXtjN8gbxVSLJ7-4" target="HO09paWQtQ8aA_VJCihO-6" edge="1">
          <mxGeometry relative="1" as="geometry" />
        </mxCell>
        <mxCell id="eo-EwUSCdZ1exYj2hIaM-8" style="rounded=0;orthogonalLoop=1;jettySize=auto;" parent="1" source="fspGmHOXtjN8gbxVSLJ7-4" target="HO09paWQtQ8aA_VJCihO-3" edge="1">
          <mxGeometry relative="1" as="geometry" />
        </mxCell>
        <mxCell id="plyIKMAmDw_uasNs-4-3-29" style="edgeStyle=none;rounded=0;orthogonalLoop=1;jettySize=auto;" parent="1" source="fspGmHOXtjN8gbxVSLJ7-4" target="HO09paWQtQ8aA_VJCihO-1" edge="1">
          <mxGeometry relative="1" as="geometry" />
        </mxCell>
        <mxCell id="Dt1DZInUWchX5-2LLVrT-2" style="rounded=0;orthogonalLoop=1;jettySize=auto;" parent="1" source="fspGmHOXtjN8gbxVSLJ7-4" target="Dt1DZInUWchX5-2LLVrT-1" edge="1">
          <mxGeometry relative="1" as="geometry" />
        </mxCell>
        <object label="Einschränkung einer kritischen Dienstleistung" id="fspGmHOXtjN8gbxVSLJ7-4">
          <ag_attributes />
          <ag_computed_attributes />
          <mxCell style="rounded=1;whiteSpace=wrap;" parent="1" vertex="1">
            <mxGeometry x="3170" y="140" width="242" height="60" as="geometry" />
          </mxCell>
        </object>
        <mxCell id="1Eub8yADe1-0UL1Ypj2I-1" style="rounded=0;orthogonalLoop=1;jettySize=auto;" parent="1" source="HO09paWQtQ8aA_VJCihO-1" target="eo-EwUSCdZ1exYj2hIaM-11" edge="1">
          <mxGeometry relative="1" as="geometry" />
        </mxCell>
        <mxCell id="1Eub8yADe1-0UL1Ypj2I-2" style="edgeStyle=none;rounded=0;orthogonalLoop=1;jettySize=auto;" parent="1" source="HO09paWQtQ8aA_VJCihO-1" target="eo-EwUSCdZ1exYj2hIaM-13" edge="1">
          <mxGeometry relative="1" as="geometry" />
        </mxCell>
        <object label="Manipulation der Zugintegritätsprüfung" id="HO09paWQtQ8aA_VJCihO-1">
          <ag_attributes />
          <ag_computed_attributes />
          <mxCell style="rounded=0;whiteSpace=wrap;" parent="1" vertex="1">
            <mxGeometry x="2869" y="320" width="120" height="60" as="geometry" />
          </mxCell>
        </object>
        <mxCell id="eo-EwUSCdZ1exYj2hIaM-2" style="rounded=0;orthogonalLoop=1;jettySize=auto;" parent="1" source="HO09paWQtQ8aA_VJCihO-3" target="eo-EwUSCdZ1exYj2hIaM-1" edge="1">
          <mxGeometry relative="1" as="geometry" />
        </mxCell>
        <mxCell id="eo-EwUSCdZ1exYj2hIaM-12" style="edgeStyle=none;rounded=0;orthogonalLoop=1;jettySize=auto;exitX=0;exitY=0.25;exitDx=0;exitDy=0;exitPerimeter=0;" parent="1" source="MnZq775cGOOVB-bRokLV-5" target="eo-EwUSCdZ1exYj2hIaM-11" edge="1">
          <mxGeometry relative="1" as="geometry" />
        </mxCell>
        <mxCell id="MnZq775cGOOVB-bRokLV-6" style="edgeStyle=none;rounded=0;orthogonalLoop=1;jettySize=auto;html=1;entryX=1;entryY=0.5;entryDx=0;entryDy=0;entryPerimeter=0;" parent="1" source="HO09paWQtQ8aA_VJCihO-3" target="MnZq775cGOOVB-bRokLV-5" edge="1">
          <mxGeometry relative="1" as="geometry" />
        </mxCell>
        <object label="Manipulation der Lokalisierung" id="HO09paWQtQ8aA_VJCihO-3">
          <ag_attributes />
          <ag_computed_attributes />
          <mxCell style="rounded=0;whiteSpace=wrap;" parent="1" vertex="1">
            <mxGeometry x="3170" y="320" width="120" height="60" as="geometry" />
          </mxCell>
        </object>
        <mxCell id="1Eub8yADe1-0UL1Ypj2I-6" value="" style="edgeStyle=none;rounded=0;orthogonalLoop=1;jettySize=auto;" parent="1" source="HO09paWQtQ8aA_VJCihO-5" target="1Eub8yADe1-0UL1Ypj2I-5" edge="1">
          <mxGeometry relative="1" as="geometry" />
        </mxCell>
        <object label="Manipulation der&#xa;V2V-Kommunikation" id="HO09paWQtQ8aA_VJCihO-5">
          <ag_attributes />
          <ag_computed_attributes />
          <mxCell style="rounded=0;whiteSpace=wrap;" parent="1" vertex="1">
            <mxGeometry x="1679" y="320" width="140" height="60" as="geometry" />
          </mxCell>
        </object>
        <mxCell id="eo-EwUSCdZ1exYj2hIaM-14" style="edgeStyle=none;rounded=0;orthogonalLoop=1;jettySize=auto;" parent="1" source="HO09paWQtQ8aA_VJCihO-6" target="eo-EwUSCdZ1exYj2hIaM-13" edge="1">
          <mxGeometry relative="1" as="geometry" />
        </mxCell>
        <object label="Störung der V2V- und V2I-Kommunikation" id="HO09paWQtQ8aA_VJCihO-6">
          <ag_attributes />
          <ag_computed_attributes />
          <mxCell style="rounded=0;whiteSpace=wrap;" parent="1" vertex="1">
            <mxGeometry x="2700" y="320" width="140" height="60" as="geometry" />
          </mxCell>
        </object>
        <mxCell id="eo-EwUSCdZ1exYj2hIaM-1" value="Fälschung ortsfester Referenzpunkte" style="rounded=0;whiteSpace=wrap;fillColor=#D7E3BF;" parent="1" vertex="1">
          <mxGeometry x="3438" y="460" width="120" height="60" as="geometry" />
        </mxCell>
        <mxCell id="eo-EwUSCdZ1exYj2hIaM-11" value="GNSS Spoofing" style="rounded=0;whiteSpace=wrap;fillColor=#FEE599;" parent="1" vertex="1">
          <mxGeometry x="3030" y="460" width="120" height="60" as="geometry" />
        </mxCell>
        <mxCell id="eo-EwUSCdZ1exYj2hIaM-13" value="FRMCS Jamming" style="rounded=0;whiteSpace=wrap;fillColor=#FEE599;" parent="1" vertex="1">
          <mxGeometry x="2710" y="460" width="120" height="60" as="geometry" />
        </mxCell>
        <mxCell id="1Eub8yADe1-0UL1Ypj2I-14" style="edgeStyle=none;rounded=0;orthogonalLoop=1;jettySize=auto;exitX=0.5;exitY=1;exitDx=0;exitDy=0;entryX=0.5;entryY=0;entryDx=0;entryDy=0;" parent="1" source="eo-EwUSCdZ1exYj2hIaM-15" target="1Eub8yADe1-0UL1Ypj2I-13" edge="1">
          <mxGeometry relative="1" as="geometry">
            <mxPoint x="2450" y="430" as="sourcePoint" />
          </mxGeometry>
        </mxCell>
        <object label="Manipulation des digitalen Kartenmaterials" id="eo-EwUSCdZ1exYj2hIaM-15">
          <ag_attributes />
          <ag_computed_attributes />
          <mxCell style="rounded=0;whiteSpace=wrap;" parent="1" vertex="1">
            <mxGeometry x="2310" y="320" width="140" height="60" as="geometry" />
          </mxCell>
        </object>
        <mxCell id="1Eub8yADe1-0UL1Ypj2I-10" style="edgeStyle=none;rounded=0;orthogonalLoop=1;jettySize=auto;entryX=0.5;entryY=0;entryDx=0;entryDy=0;" parent="1" source="eo-EwUSCdZ1exYj2hIaM-17" target="1Eub8yADe1-0UL1Ypj2I-9" edge="1">
          <mxGeometry relative="1" as="geometry">
            <mxPoint x="2080" y="500" as="targetPoint" />
          </mxGeometry>
        </mxCell>
        <object label="Manipulation der&#xa;V2I-Kommunikation" id="eo-EwUSCdZ1exYj2hIaM-17">
          <ag_attributes />
          <ag_computed_attributes />
          <mxCell style="rounded=0;whiteSpace=wrap;" parent="1" vertex="1">
            <mxGeometry x="1997" y="320" width="140" height="60" as="geometry" />
          </mxCell>
        </object>
        <mxCell id="plyIKMAmDw_uasNs-4-3-2" value="" style="edgeStyle=none;rounded=0;orthogonalLoop=1;jettySize=auto;" parent="1" source="wuFwHVqsx3Kr4lyMLA3o-2" target="plyIKMAmDw_uasNs-4-3-1" edge="1">
          <mxGeometry relative="1" as="geometry" />
        </mxCell>
        <mxCell id="plyIKMAmDw_uasNs-4-3-3" style="edgeStyle=none;rounded=0;orthogonalLoop=1;jettySize=auto;" parent="1" source="wuFwHVqsx3Kr4lyMLA3o-2" target="plyIKMAmDw_uasNs-4-3-4" edge="1">
          <mxGeometry relative="1" as="geometry">
            <mxPoint x="1530" y="430" as="targetPoint" />
          </mxGeometry>
        </mxCell>
        <mxCell id="ptvyqzhh6_QlkKdHmj06-2" style="rounded=0;orthogonalLoop=1;jettySize=auto;html=1;" parent="1" source="wuFwHVqsx3Kr4lyMLA3o-2" target="ptvyqzhh6_QlkKdHmj06-1" edge="1">
          <mxGeometry relative="1" as="geometry" />
        </mxCell>
        <mxCell id="ptvyqzhh6_QlkKdHmj06-4" style="edgeStyle=none;rounded=0;orthogonalLoop=1;jettySize=auto;html=1;" parent="1" source="wuFwHVqsx3Kr4lyMLA3o-2" target="ptvyqzhh6_QlkKdHmj06-3" edge="1">
          <mxGeometry relative="1" as="geometry" />
        </mxCell>
        <mxCell id="wuFwHVqsx3Kr4lyMLA3o-2" value="Feldelement kompromittieren" style="rounded=0;whiteSpace=wrap;strokeColor=#000000;" parent="1" vertex="1">
          <mxGeometry x="1300" y="320" width="140" height="60" as="geometry" />
        </mxCell>
        <mxCell id="plyIKMAmDw_uasNs-4-3-10" value="" style="edgeStyle=none;rounded=0;orthogonalLoop=1;jettySize=auto;exitX=0;exitY=0.75;exitDx=0;exitDy=0;exitPerimeter=0;" parent="1" source="MnZq775cGOOVB-bRokLV-5" target="plyIKMAmDw_uasNs-4-3-9" edge="1">
          <mxGeometry relative="1" as="geometry" />
        </mxCell>
        <mxCell id="plyIKMAmDw_uasNs-4-3-18" value="" style="edgeStyle=none;rounded=0;orthogonalLoop=1;jettySize=auto;" parent="1" source="1Eub8yADe1-0UL1Ypj2I-5" target="plyIKMAmDw_uasNs-4-3-17" edge="1">
          <mxGeometry relative="1" as="geometry" />
        </mxCell>
        <mxCell id="plyIKMAmDw_uasNs-4-3-22" style="edgeStyle=none;rounded=0;orthogonalLoop=1;jettySize=auto;" parent="1" source="1Eub8yADe1-0UL1Ypj2I-5" target="plyIKMAmDw_uasNs-4-3-19" edge="1">
          <mxGeometry relative="1" as="geometry" />
        </mxCell>
        <mxCell id="1Eub8yADe1-0UL1Ypj2I-5" value="Befahren der Infrastruktur ohne Fahrwegsicherung" style="whiteSpace=wrap;rounded=0;" parent="1" vertex="1">
          <mxGeometry x="1689" y="460" width="120" height="60" as="geometry" />
        </mxCell>
        <mxCell id="plyIKMAmDw_uasNs-4-3-25" style="edgeStyle=none;rounded=0;orthogonalLoop=1;jettySize=auto;" parent="1" source="1Eub8yADe1-0UL1Ypj2I-9" target="plyIKMAmDw_uasNs-4-3-24" edge="1">
          <mxGeometry relative="1" as="geometry" />
        </mxCell>
        <mxCell id="plyIKMAmDw_uasNs-4-3-28" style="edgeStyle=none;rounded=0;orthogonalLoop=1;jettySize=auto;" parent="1" source="1Eub8yADe1-0UL1Ypj2I-9" target="plyIKMAmDw_uasNs-4-3-23" edge="1">
          <mxGeometry relative="1" as="geometry" />
        </mxCell>
        <mxCell id="1Eub8yADe1-0UL1Ypj2I-9" value="Falsche Meldung über Lage von Fahrwegelementen oder Belegung von Gleisabschnitten" style="rounded=0;whiteSpace=wrap;" parent="1" vertex="1">
          <mxGeometry x="1977" y="460" width="180" height="60" as="geometry" />
        </mxCell>
        <mxCell id="plyIKMAmDw_uasNs-4-3-13" value="" style="edgeStyle=none;rounded=0;orthogonalLoop=1;jettySize=auto;" parent="1" source="1Eub8yADe1-0UL1Ypj2I-13" target="plyIKMAmDw_uasNs-4-3-12" edge="1">
          <mxGeometry relative="1" as="geometry" />
        </mxCell>
        <mxCell id="plyIKMAmDw_uasNs-4-3-15" value="" style="edgeStyle=none;rounded=0;orthogonalLoop=1;jettySize=auto;" parent="1" source="1Eub8yADe1-0UL1Ypj2I-13" target="plyIKMAmDw_uasNs-4-3-14" edge="1">
          <mxGeometry relative="1" as="geometry" />
        </mxCell>
        <mxCell id="1Eub8yADe1-0UL1Ypj2I-13" value="Fahrwegeigenschaften verändern oder Gefahrpunkte löschen" style="rounded=0;whiteSpace=wrap;" parent="1" vertex="1">
          <mxGeometry x="2310" y="460" width="140" height="60" as="geometry" />
        </mxCell>
        <mxCell id="plyIKMAmDw_uasNs-4-3-7" value="" style="edgeStyle=none;rounded=0;orthogonalLoop=1;jettySize=auto;" parent="1" source="beV7eknHXk7o7M9lF_l--1" target="plyIKMAmDw_uasNs-4-3-6" edge="1">
          <mxGeometry relative="1" as="geometry" />
        </mxCell>
        <mxCell id="beV7eknHXk7o7M9lF_l--1" value="Kompromittierung Fahrzeugbus" style="rounded=0;whiteSpace=wrap;" parent="1" vertex="1">
          <mxGeometry x="2859" y="460" width="140" height="60" as="geometry" />
        </mxCell>
        <mxCell id="beV7eknHXk7o7M9lF_l--3" style="rounded=0;orthogonalLoop=1;jettySize=auto;" parent="1" source="HO09paWQtQ8aA_VJCihO-1" target="beV7eknHXk7o7M9lF_l--1" edge="1">
          <mxGeometry relative="1" as="geometry">
            <mxPoint x="2958.5714285714284" y="390" as="sourcePoint" />
            <mxPoint x="3061.4285714285716" y="470" as="targetPoint" />
          </mxGeometry>
        </mxCell>
        <mxCell id="plyIKMAmDw_uasNs-4-3-1" value="Falsche Weichenlage erzwingen" style="whiteSpace=wrap;rounded=0;fillColor=#D7E3BF;" parent="1" vertex="1">
          <mxGeometry x="1520" y="460" width="120" height="60" as="geometry" />
        </mxCell>
        <mxCell id="plyIKMAmDw_uasNs-4-3-4" value="Weiche zur Unzeit umstellen" style="whiteSpace=wrap;rounded=0;fillColor=#D7E3BF;" parent="1" vertex="1">
          <mxGeometry x="1380" y="460" width="120" height="60" as="geometry" />
        </mxCell>
        <mxCell id="plyIKMAmDw_uasNs-4-3-6" value="Spoofing der Digitalen Zugschlussscheibe" style="whiteSpace=wrap;rounded=0;fillColor=#D7E3BF;" parent="1" vertex="1">
          <mxGeometry x="2869" y="584" width="120" height="60" as="geometry" />
        </mxCell>
        <mxCell id="Dt1DZInUWchX5-2LLVrT-7" value="" style="edgeStyle=none;rounded=0;orthogonalLoop=1;jettySize=auto;" parent="1" source="plyIKMAmDw_uasNs-4-3-9" target="Dt1DZInUWchX5-2LLVrT-6" edge="1">
          <mxGeometry relative="1" as="geometry" />
        </mxCell>
        <mxCell id="Dt1DZInUWchX5-2LLVrT-9" value="" style="edgeStyle=none;rounded=0;orthogonalLoop=1;jettySize=auto;" parent="1" source="plyIKMAmDw_uasNs-4-3-9" target="Dt1DZInUWchX5-2LLVrT-10" edge="1">
          <mxGeometry relative="1" as="geometry">
            <mxPoint x="3290.8" y="585" as="targetPoint" />
          </mxGeometry>
        </mxCell>
        <mxCell id="MnZq775cGOOVB-bRokLV-2" style="rounded=0;orthogonalLoop=1;jettySize=auto;html=1;" parent="1" source="plyIKMAmDw_uasNs-4-3-9" target="MnZq775cGOOVB-bRokLV-1" edge="1">
          <mxGeometry relative="1" as="geometry" />
        </mxCell>
        <mxCell id="MnZq775cGOOVB-bRokLV-4" style="edgeStyle=none;rounded=0;orthogonalLoop=1;jettySize=auto;html=1;" parent="1" source="plyIKMAmDw_uasNs-4-3-9" target="MnZq775cGOOVB-bRokLV-3" edge="1">
          <mxGeometry relative="1" as="geometry" />
        </mxCell>
        <mxCell id="plyIKMAmDw_uasNs-4-3-9" value="FOS-Einheit kompromittieren" style="whiteSpace=wrap;rounded=0;" parent="1" vertex="1">
          <mxGeometry x="3220" y="460" width="120" height="60" as="geometry" />
        </mxCell>
        <mxCell id="plyIKMAmDw_uasNs-4-3-12" value="Falsches Update einspielen" style="whiteSpace=wrap;rounded=0;fillColor=#D7E3BF;" parent="1" vertex="1">
          <mxGeometry x="2270" y="585" width="120" height="60" as="geometry" />
        </mxCell>
        <mxCell id="plyIKMAmDw_uasNs-4-3-14" value="Datenspeicher modifizieren" style="whiteSpace=wrap;rounded=0;fillColor=#D7E3BF;" parent="1" vertex="1">
          <mxGeometry x="2410" y="585" width="120" height="60" as="geometry" />
        </mxCell>
        <mxCell id="plyIKMAmDw_uasNs-4-3-17" value="MitM auf V2V-Kommunikation" style="whiteSpace=wrap;rounded=0;fillColor=#D7E3BF;" parent="1" vertex="1">
          <mxGeometry x="1610" y="585" width="120" height="60" as="geometry" />
        </mxCell>
        <mxCell id="plyIKMAmDw_uasNs-4-3-19" value="Gefälschtes V2V-Paket einschleusen" style="whiteSpace=wrap;rounded=0;fillColor=#D7E3BF;" parent="1" vertex="1">
          <mxGeometry x="1750" y="585" width="120" height="60" as="geometry" />
        </mxCell>
        <mxCell id="plyIKMAmDw_uasNs-4-3-23" value="Gefälschtes V2I-Paket einschleusen" style="whiteSpace=wrap;rounded=0;fillColor=#D7E3BF;" parent="1" vertex="1">
          <mxGeometry x="2090" y="585" width="120" height="60" as="geometry" />
        </mxCell>
        <mxCell id="plyIKMAmDw_uasNs-4-3-24" value="MitM auf V2I-Kommunikation" style="whiteSpace=wrap;rounded=0;fillColor=#D7E3BF;" parent="1" vertex="1">
          <mxGeometry x="1940" y="585" width="120" height="60" as="geometry" />
        </mxCell>
        <mxCell id="Dt1DZInUWchX5-2LLVrT-22" style="edgeStyle=none;rounded=0;orthogonalLoop=1;jettySize=auto;" parent="1" source="Dt1DZInUWchX5-2LLVrT-1" target="Dt1DZInUWchX5-2LLVrT-19" edge="1">
          <mxGeometry relative="1" as="geometry" />
        </mxCell>
        <mxCell id="Dt1DZInUWchX5-2LLVrT-1" value="Erschaffung von Geisterzügen" style="whiteSpace=wrap;rounded=0;" parent="1" vertex="1">
          <mxGeometry x="3710" y="320" width="120" height="60" as="geometry" />
        </mxCell>
        <mxCell id="Dt1DZInUWchX5-2LLVrT-6" value="Anderen LWL anstecken" style="whiteSpace=wrap;rounded=0;fillColor=#D7E3BF;" parent="1" vertex="1">
          <mxGeometry x="3188" y="584" width="120" height="60" as="geometry" />
        </mxCell>
        <mxCell id="Dt1DZInUWchX5-2LLVrT-10" value="Vibrationen eintragen" style="whiteSpace=wrap;rounded=0;fillColor=#D7E3BF;" parent="1" vertex="1">
          <mxGeometry x="3048" y="584" width="120" height="60" as="geometry" />
        </mxCell>
        <mxCell id="Dt1DZInUWchX5-2LLVrT-13" value="Spoofing der&#xa;V2I-Kommunikation" style="rounded=0;whiteSpace=wrap;fillColor=#D7E3BF;" parent="1" vertex="1">
          <mxGeometry x="3830" y="460" width="140" height="60" as="geometry" />
        </mxCell>
        <mxCell id="Dt1DZInUWchX5-2LLVrT-18" style="edgeStyle=none;rounded=0;orthogonalLoop=1;jettySize=auto;" parent="1" source="Dt1DZInUWchX5-2LLVrT-1" target="Dt1DZInUWchX5-2LLVrT-13" edge="1">
          <mxGeometry relative="1" as="geometry">
            <mxPoint x="3785.3856739833486" y="430.33500000000015" as="sourcePoint" />
          </mxGeometry>
        </mxCell>
        <mxCell id="Dt1DZInUWchX5-2LLVrT-19" value="Spoofing der&#xa;V2V-Kommunikation" style="rounded=0;whiteSpace=wrap;fillColor=#D7E3BF;" parent="1" vertex="1">
          <mxGeometry x="3630" y="460" width="140" height="60" as="geometry" />
        </mxCell>
        <mxCell id="9oEdh1MyGVBt2nT8Ydrc-1" value="Angriffsziel&#xa;Dezentrales Stellwerk/Stellwerkloses Fahren" style="verticalAlign=middle;align=center;fillColor=#FFFFFF;gradientColor=none;labelBackgroundColor=none;rounded=0;whiteSpace=wrap;shape=trapezoid;size=0.07500000000000001;" parent="1" vertex="1">
          <mxGeometry x="2189" y="30" width="300" height="60" as="geometry" />
        </mxCell>
        <mxCell id="ptvyqzhh6_QlkKdHmj06-1" value="Reservierte Weiche vorzeitig freigeben" style="whiteSpace=wrap;rounded=0;fillColor=#D7E3BF;" parent="1" vertex="1">
          <mxGeometry x="1230" y="460" width="120" height="60" as="geometry" />
        </mxCell>
        <mxCell id="ptvyqzhh6_QlkKdHmj06-3" value="Reservierten Streckenabschnitt vorzeitig freigeben" style="whiteSpace=wrap;rounded=0;fillColor=#D7E3BF;" parent="1" vertex="1">
          <mxGeometry x="1090" y="460" width="120" height="60" as="geometry" />
        </mxCell>
        <mxCell id="MnZq775cGOOVB-bRokLV-1" value="Datenübertragung der Auswertung manipulieren" style="whiteSpace=wrap;rounded=0;fillColor=#D7E3BF;" parent="1" vertex="1">
          <mxGeometry x="3490" y="584" width="150" height="60" as="geometry" />
        </mxCell>
        <mxCell id="MnZq775cGOOVB-bRokLV-3" value="Signaturen ändern" style="whiteSpace=wrap;rounded=0;fillColor=#D7E3BF;" parent="1" vertex="1">
          <mxGeometry x="3330" y="584" width="150" height="60" as="geometry" />
        </mxCell>
        <mxCell id="MnZq775cGOOVB-bRokLV-5" value="" style="shape=or;whiteSpace=wrap;html=1;rotation=-90;" parent="1" vertex="1">
          <mxGeometry x="3170" y="400" width="30" height="40" as="geometry" />
        </mxCell>
        <mxCell id="ARno10TD8BgZtA0jZ4e0-2" style="rounded=0;orthogonalLoop=1;jettySize=auto;html=1;" edge="1" parent="1" source="ARno10TD8BgZtA0jZ4e0-1" target="HO09paWQtQ8aA_VJCihO-5">
          <mxGeometry relative="1" as="geometry" />
        </mxCell>
        <mxCell id="ARno10TD8BgZtA0jZ4e0-3" style="edgeStyle=none;rounded=0;orthogonalLoop=1;jettySize=auto;html=1;" edge="1" parent="1" source="ARno10TD8BgZtA0jZ4e0-1" target="eo-EwUSCdZ1exYj2hIaM-17">
          <mxGeometry relative="1" as="geometry" />
        </mxCell>
        <mxCell id="ARno10TD8BgZtA0jZ4e0-4" style="edgeStyle=none;rounded=0;orthogonalLoop=1;jettySize=auto;html=1;" edge="1" parent="1" source="ARno10TD8BgZtA0jZ4e0-1" target="eo-EwUSCdZ1exYj2hIaM-15">
          <mxGeometry relative="1" as="geometry" />
        </mxCell>
        <mxCell id="ARno10TD8BgZtA0jZ4e0-5" style="edgeStyle=none;rounded=0;orthogonalLoop=1;jettySize=auto;html=1;" edge="1" parent="1" source="ARno10TD8BgZtA0jZ4e0-1" target="HO09paWQtQ8aA_VJCihO-6">
          <mxGeometry relative="1" as="geometry" />
        </mxCell>
        <mxCell id="ARno10TD8BgZtA0jZ4e0-6" style="edgeStyle=none;rounded=0;orthogonalLoop=1;jettySize=auto;html=1;" edge="1" parent="1" source="ARno10TD8BgZtA0jZ4e0-1" target="HO09paWQtQ8aA_VJCihO-1">
          <mxGeometry relative="1" as="geometry" />
        </mxCell>
        <mxCell id="ARno10TD8BgZtA0jZ4e0-7" style="edgeStyle=none;rounded=0;orthogonalLoop=1;jettySize=auto;html=1;" edge="1" parent="1" source="ARno10TD8BgZtA0jZ4e0-1" target="HO09paWQtQ8aA_VJCihO-3">
          <mxGeometry relative="1" as="geometry" />
        </mxCell>
        <object label="Finanzieller Schaden Betreiber" id="ARno10TD8BgZtA0jZ4e0-1">
          <ag_attributes />
          <ag_computed_attributes />
          <mxCell style="rounded=1;whiteSpace=wrap;" vertex="1" parent="1">
            <mxGeometry x="2400" y="140" width="242" height="60" as="geometry" />
          </mxCell>
        </object>
      </root>
    </mxGraphModel>
  </diagram>
</mxfile>
